<?xml version="1.0" encoding="utf-8"?>
<!-- Svg Vector Icons : http://www.onlinewebfonts.com/icon -->
<!DOCTYPE svg PUBLIC "-//W3C//DTD SVG 1.1//EN" "http://www.w3.org/Graphics/SVG/1.1/DTD/svg11.dtd">
<svg version="1.1" xmlns="http://www.w3.org/2000/svg" xmlns:xlink="http://www.w3.org/1999/xlink" x="0px" y="0px" viewBox="0 0 1000 1000" enable-background="new 0 0 1000 1000" xml:space="preserve">
<metadata> Svg Vector Icons : http://www.onlinewebfonts.com/icon </metadata>
<g><path d="M672.8,290h203.4c12.1,0,15.9-7.8,8.6-17.4c0,0,3,2.8-2.1-2.3L659.7,47.2c-5.1-5.1-2.3-2.1-2.3-2.1c-9.5-7.5-17.4-3.4-17.4,8.6v203.4C640,275.3,654.7,290,672.8,290z"/><path d="M639.4,359.1c-38.7-0.1-70-31.6-70-70.2V10H150c-38.7,0-70,31.3-70,70v840c0,38.7,31.3,70,70,70h700c38.7,0,70-31.3,70-70V360L639.4,359.1z M673.9,780h-350c-19.3,0-35-15.7-35-35c0-19.3,15.7-35,35-35h350c19.3,0,35,15.7,35,35C708.9,764.3,693.2,780,673.9,780z M673.9,640h-350c-19.3,0-35-15.7-35-35c0-19.3,15.7-35,35-35h350c19.3,0,35,15.7,35,35C708.9,624.3,693.2,640,673.9,640z M673.9,501.1h-350c-19.3,0-35-15.7-35-35c0-19.3,15.7-35,35-35h350c19.3,0,35,15.7,35,35C708.9,485.4,693.2,501.1,673.9,501.1z"/></g>
</svg>