<?xml version="1.0" encoding="UTF-8" standalone="no"?><!-- Generator: Gravit.io --><svg xmlns="http://www.w3.org/2000/svg" xmlns:xlink="http://www.w3.org/1999/xlink" style="isolation:isolate" viewBox="0 0 150 100" width="150pt" height="100pt"><defs><clipPath id="_clipPath_HtFOSgNpUyq6ZH2BT8OmVGZi4YUqxBrK"><rect width="150" height="100"/></clipPath></defs><g clip-path="url(#_clipPath_HtFOSgNpUyq6ZH2BT8OmVGZi4YUqxBrK)"><rect width="150" height="100" style="fill:rgb(0,0,0)" fill-opacity="0"/><rect x="3.914" y="22.917" width="140.729" height="72.917" transform="matrix(1,0,0,1,0,0)" fill="rgb(234,197,197)"/><path d=" M 8.036 0 C 3.611 0 0 2.808 0 6.25 L 0 93.75 C 0 97.192 3.611 100 8.036 100 L 141.964 100 C 146.389 100 150 97.192 150 93.75 L 150 6.25 C 150 2.808 146.389 0 141.964 0 L 8.036 0 Z  M 8.036 4.167 L 141.964 4.167 C 143.438 4.167 144.643 5.104 144.643 6.25 L 144.643 93.75 C 144.643 94.896 143.438 95.833 141.964 95.833 L 8.036 95.833 C 6.563 95.833 5.357 94.896 5.357 93.75 L 5.357 25 L 115.179 25 C 116.658 25 117.857 24.067 117.857 22.917 C 117.857 21.766 116.658 20.833 115.179 20.833 L 5.357 20.833 L 5.357 6.25 C 5.357 5.104 6.563 4.167 8.036 4.167 Z  M 16.071 8.333 C 14.592 8.333 13.393 9.266 13.393 10.417 L 13.393 14.583 C 13.393 15.734 14.592 16.667 16.071 16.667 C 17.551 16.667 18.75 15.734 18.75 14.583 L 18.75 10.417 C 18.75 9.266 17.551 8.333 16.071 8.333 Z  M 29.464 8.333 C 27.985 8.333 26.786 9.266 26.786 10.417 L 26.786 14.583 C 26.786 15.734 27.985 16.667 29.464 16.667 C 30.944 16.667 32.143 15.734 32.143 14.583 L 32.143 10.417 C 32.143 9.266 30.944 8.333 29.464 8.333 Z  M 42.857 8.333 C 41.378 8.333 40.179 9.266 40.179 10.417 L 40.179 14.583 C 40.179 15.734 41.378 16.667 42.857 16.667 C 44.336 16.667 45.536 15.734 45.536 14.583 L 45.536 10.417 C 45.536 9.266 44.336 8.333 42.857 8.333 Z  M 56.25 8.333 C 54.771 8.333 53.571 9.266 53.571 10.417 L 53.571 14.583 C 53.571 15.734 54.771 16.667 56.25 16.667 C 57.729 16.667 58.929 15.734 58.929 14.583 L 58.929 10.417 C 58.929 9.266 57.729 8.333 56.25 8.333 Z  M 69.643 8.333 C 68.164 8.333 66.964 9.266 66.964 10.417 L 66.964 14.583 C 66.964 15.734 68.164 16.667 69.643 16.667 C 71.122 16.667 72.321 15.734 72.321 14.583 L 72.321 10.417 C 72.321 9.266 71.122 8.333 69.643 8.333 Z  M 83.036 8.333 C 81.556 8.333 80.357 9.266 80.357 10.417 L 80.357 14.583 C 80.357 15.734 81.556 16.667 83.036 16.667 C 84.515 16.667 85.714 15.734 85.714 14.583 L 85.714 10.417 C 85.714 9.266 84.515 8.333 83.036 8.333 Z  M 96.429 8.333 C 94.949 8.333 93.75 9.266 93.75 10.417 L 93.75 14.583 C 93.75 15.734 94.949 16.667 96.429 16.667 C 97.908 16.667 99.107 15.734 99.107 14.583 L 99.107 10.417 C 99.107 9.266 97.908 8.333 96.429 8.333 Z  M 109.821 8.333 C 108.342 8.333 107.143 9.266 107.143 10.417 L 107.143 14.583 C 107.143 15.734 108.342 16.667 109.821 16.667 C 111.301 16.667 112.5 15.734 112.5 14.583 L 112.5 10.417 C 112.5 9.266 111.301 8.333 109.821 8.333 Z  M 123.214 8.333 C 121.735 8.333 120.536 9.266 120.536 10.417 L 120.536 14.583 C 120.536 15.734 121.735 16.667 123.214 16.667 C 124.694 16.667 125.893 15.734 125.893 14.583 L 125.893 10.417 C 125.893 9.266 124.694 8.333 123.214 8.333 Z  M 136.607 8.333 C 135.128 8.333 133.929 9.266 133.929 10.417 L 133.929 14.583 C 133.929 15.734 135.128 16.667 136.607 16.667 C 138.086 16.667 139.286 15.734 139.286 14.583 L 139.286 10.417 C 139.286 9.266 138.086 8.333 136.607 8.333 Z  M 125.893 20.833 C 124.414 20.833 123.214 21.766 123.214 22.917 C 123.214 24.067 124.414 25 125.893 25 L 136.607 25 C 138.086 25 139.286 24.067 139.286 22.917 C 139.286 21.766 138.086 20.833 136.607 20.833 L 125.893 20.833 Z  M 136.607 31.25 C 135.897 31.25 135.216 31.47 134.713 31.86 L 115.942 46.46 C 114.87 46.053 113.693 45.838 112.5 45.833 C 110.643 45.84 108.847 46.353 107.424 47.281 L 93.584 40.829 C 93.688 40.429 93.75 40.006 93.75 39.583 C 93.75 36.142 90.139 33.333 85.714 33.333 C 81.289 33.333 77.679 36.142 77.679 39.583 C 77.679 40.429 77.898 41.235 78.295 41.975 L 62.737 52.865 C 61.572 52.361 60.262 52.092 58.929 52.083 C 56.531 52.083 54.399 52.921 52.934 54.223 L 40.146 50.244 C 40.157 50.163 40.179 50.081 40.179 50 C 40.179 46.558 36.568 43.75 32.143 43.75 C 27.718 43.75 24.107 46.558 24.107 50 C 24.107 50.594 24.254 51.165 24.453 51.717 L 11.845 58.723 C 11.267 59.042 10.876 59.527 10.758 60.07 C 10.64 60.614 10.804 61.172 11.215 61.621 C 11.623 62.073 12.246 62.378 12.946 62.47 C 13.645 62.562 14.363 62.431 14.938 62.108 L 27.538 55.11 C 28.884 55.852 30.493 56.251 32.143 56.25 C 34.54 56.25 36.672 55.413 38.138 54.11 L 50.925 58.09 C 50.914 58.171 50.893 58.252 50.893 58.333 C 50.893 61.775 54.504 64.583 58.929 64.583 C 63.354 64.583 66.964 61.775 66.964 58.333 C 66.965 57.512 66.756 56.699 66.348 55.942 L 81.905 45.052 C 83.046 45.531 84.332 45.833 85.714 45.833 C 87.572 45.826 89.367 45.314 90.79 44.385 L 104.63 50.837 C 104.522 51.247 104.466 51.665 104.464 52.083 C 104.464 55.525 108.075 58.333 112.5 58.333 C 116.925 58.333 120.536 55.525 120.536 52.083 C 120.536 51.125 120.233 50.219 119.732 49.406 L 138.501 34.806 C 139.267 34.21 139.496 33.315 139.081 32.536 C 138.667 31.758 137.69 31.25 136.607 31.25 Z  M 85.714 37.15 C 86.854 37.124 87.922 37.583 88.502 38.347 C 89.081 39.111 89.08 40.06 88.5 40.824 C 87.92 41.587 86.852 42.045 85.712 42.019 C 84.019 41.98 82.673 40.901 82.673 39.583 C 82.674 38.266 84.021 37.188 85.714 37.15 Z  M 32.143 47.567 C 33.283 47.541 34.351 48 34.93 48.764 C 35.51 49.528 35.509 50.477 34.929 51.24 C 34.348 52.004 33.28 52.462 32.14 52.435 C 30.447 52.396 29.101 51.317 29.102 50 C 29.103 48.683 30.45 47.605 32.143 47.567 Z  M 112.5 49.569 C 113.809 49.568 114.99 50.181 115.492 51.121 C 115.993 52.062 115.716 53.145 114.791 53.865 C 113.865 54.585 112.473 54.8 111.263 54.41 C 110.054 54.02 109.266 53.102 109.267 52.083 C 109.271 50.696 110.716 49.572 112.5 49.569 L 112.5 49.569 Z  M 58.929 55.9 C 60.069 55.874 61.136 56.333 61.716 57.097 C 62.295 57.861 62.295 58.81 61.714 59.574 C 61.134 60.337 60.066 60.795 58.926 60.769 C 57.233 60.73 55.887 59.651 55.888 58.333 C 55.888 57.016 57.236 55.938 58.929 55.9 Z  M 77.679 58.333 C 76.199 58.333 75 59.266 75 60.417 L 75 87.5 L 69.643 87.5 L 69.643 77.083 C 69.643 75.933 68.444 75 66.964 75 L 50.893 75 C 49.414 75 48.214 75.933 48.214 77.083 L 48.214 87.5 L 42.857 87.5 L 42.857 68.75 C 42.857 67.599 41.658 66.667 40.179 66.667 L 24.107 66.667 C 22.628 66.667 21.429 67.599 21.429 68.75 L 21.429 87.5 L 18.75 87.5 C 17.271 87.5 16.071 88.433 16.071 89.583 C 16.071 90.734 17.271 91.667 18.75 91.667 L 125.893 91.667 C 127.372 91.667 128.571 90.734 128.571 89.583 C 128.571 88.433 127.372 87.5 125.893 87.5 L 123.214 87.5 L 123.214 72.917 C 123.214 71.766 122.015 70.833 120.536 70.833 L 104.464 70.833 C 102.985 70.833 101.786 71.766 101.786 72.917 L 101.786 87.5 L 96.429 87.5 L 96.429 60.417 C 96.429 59.266 95.229 58.333 93.75 58.333 L 77.679 58.333 Z  M 80.357 62.5 L 91.071 62.5 L 91.071 87.5 L 80.357 87.5 L 80.357 62.5 Z  M 26.786 70.833 L 37.5 70.833 L 37.5 87.5 L 26.786 87.5 L 26.786 70.833 Z  M 107.143 75 L 117.857 75 L 117.857 87.5 L 107.143 87.5 L 107.143 75 Z  M 53.571 79.167 L 64.286 79.167 L 64.286 87.5 L 53.571 87.5 L 53.571 79.167 Z " fill="rgb(142,26,26)"/></g></svg>