<?xml version="1.0" encoding="UTF-8" standalone="no"?><!-- Generator: Gravit.io --><svg xmlns="http://www.w3.org/2000/svg" xmlns:xlink="http://www.w3.org/1999/xlink" style="isolation:isolate" viewBox="0 0 1500 820" width="1500pt" height="820pt"><defs><clipPath id="_clipPath_KnKFZ89cMVHoqmiZY7LYngr8yIbtyGUM"><rect width="1500" height="820"/></clipPath></defs><g clip-path="url(#_clipPath_KnKFZ89cMVHoqmiZY7LYngr8yIbtyGUM)"><path d=" M 174.387 83.764 C 188.369 53.142 220.525 31.184 258.762 26.146 L 616.849 -21.055 C 655.076 -26.102 693.57 -13.437 717.836 12.121 L 945.061 251.641 C 969.317 277.225 975.666 311.831 961.694 342.453 L 830.832 629.166 C 816.85 659.788 784.685 681.755 746.458 686.811 L 388.371 734.012 C 350.144 739.05 311.639 726.411 287.384 700.818 L 60.158 461.307 C 35.903 435.714 29.554 401.108 43.526 370.486 L 174.387 83.764 Z " fill="rgb(244,239,239)"/><path d=" M 1438.575 88.775 C 1451.216 94.941 1459.291 105.964 1459.758 117.697 L 1464.132 227.566 C 1464.605 239.296 1457.389 249.949 1445.221 255.517 L 1331.222 307.653 C 1319.043 313.219 1303.761 312.856 1291.12 306.689 L 1172.742 248.955 C 1160.101 242.789 1152.026 231.762 1151.547 220.031 L 1147.173 110.163 C 1146.705 98.433 1153.912 87.774 1166.09 82.212 L 1280.089 30.077 C 1292.268 24.51 1307.549 24.878 1320.197 31.041 L 1438.575 88.775 Z " fill="rgb(244,239,239)"/><path d=" M 1195.811 513.08 C 1202.37 498.11 1217.452 487.378 1235.39 484.914 L 1403.359 461.841 C 1421.289 459.373 1439.344 465.565 1450.727 478.06 L 1557.313 595.143 C 1568.692 607.651 1571.667 624.567 1565.117 639.535 L 1503.733 779.691 C 1497.174 794.66 1482.086 805.397 1464.154 807.869 L 1296.185 830.944 C 1278.251 833.406 1260.194 827.227 1248.815 814.717 L 1142.229 697.636 C 1130.852 685.126 1127.873 668.208 1134.427 653.238 L 1195.811 513.08 Z " fill="rgb(187,22,33)"/><path d=" M 263.302 639.448 C 268.594 628.709 280.766 621.004 295.242 619.236 L 430.795 602.683 C 445.266 600.911 459.837 605.353 469.022 614.32 L 555.037 698.33 C 564.222 707.306 566.627 719.443 561.335 730.183 L 511.797 830.75 C 506.506 841.49 494.328 849.195 479.857 850.971 L 344.305 867.524 C 329.834 869.292 315.257 864.859 306.077 855.883 L 220.063 771.873 C 210.878 762.897 208.478 750.76 213.764 740.016 L 263.302 639.448 Z " fill="rgb(0,0,0)"/></g></svg>